# xmcd
#
# Track frame offsets:
#	150
#	32552
#	50838
#	70021
#	95603
#	113846
#	139157
#	156251
#	175487
#	204971
#	222122
#	240451
#	267263
#	291256
#	320245
#
# Disc length: 4535 seconds
#
# Revision: 0
# Processed by: cddbd v1.5.2PL0 Copyright (c) Steve Scherf et al.
# Submitted via: audiograbber 1.83.01
#
DISCID=e411b50f
DTITLE=Various Artist - Deutschrock
DYEAR=2009
DGENRE=Rock
TTITLE0=Brothers Keepers - Adriano
TTITLE1=Die Ärzte - Mach Die Augen Zu Und Küss Mich
TTITLE2=Die Fantastischen Vier - Die Da
TTITLE3=Glashaus - Wenn Das Liebe Ist
TTITLE4=Herbert Grönemeyer - Kinder An Die Macht
TTITLE5=Jan Delay - Irgendwie, Irgendwo, Irgendwann
TTITLE6=Kraftwerk - Das Model
TTITLE7=Peter Maffay - Ich Wollte Nie Erwachsen Sein
TTITLE8=Pur - Abenteuerland
TTITLE9=Reamonn feat. Xavier Naidoo - Jeanny
TTITLE10=Achim Reichel - Aloha He
TTITLE11=Scooter - Am Fenster
TTITLE12=Selig - Ohne Dich
TTITLE13=Westernhagen - Nimm Mich Mit (2000)
TTITLE14=Edo Zanki and Freunde - Gib Mir Musik
EXTD=
EXTT0=
EXTT1=
EXTT2=
EXTT3=
EXTT4=
EXTT5=
EXTT6=
EXTT7=
EXTT8=
EXTT9=
EXTT10=
EXTT11=
EXTT12=
EXTT13=
EXTT14=
PLAYORDER=
